<?xml version="1.0" encoding="UTF-8"?><svg id="Layer_2" xmlns="http://www.w3.org/2000/svg" viewBox="0 0 38.38 44.63"><defs><style>.cls-1{fill:#fff;}.cls-2{fill:#a7a9ac;}.cls-3{fill:#808285;}.cls-4{fill:#d1d3d4;}.cls-5{fill:#231f20;}</style></defs><g id="Layer_1-2"><g><path class="cls-3" d="M22.89,44.28c-2.81,.51-4.31,.43-7.41,0-3.85-.53-11.69-4.14-13.87-8.1L0,18.48s.06-.04,.07-.15c.56-4.06,3.67-5.58,3.39-5.28-2.65,2.8-.22,4.7-.17,4.77,3.46,4.2,11.24,2.36,16.83-.57,5.68-2.97,15.06-6.93,18.25,.75,.01,.03,0,0,0,0l-1.61,18.19c-2.16,4.2-10.05,7.4-13.87,8.1Z"/><ellipse class="cls-5" cx="19.25" cy="30.43" rx="2.61" ry="2.65"/><polygon class="cls-5" points="17.59 32.28 20.58 32.28 21.54 37.87 16.75 37.87 17.59 32.28"/><path class="cls-2" d="M2.63,19.93c-1.48-1.14-2.25-2.2-1.73-4.01,.2-.7,.62-1.43,1.05-1.91,.62-.69,1.67-1.16,1.53-1-.71,.78-.81,1.07-1.01,1.46-.33,.69-.32,1.48-.02,2.05,2.38,4.47,11.74,4.51,17.84,.73,6.53-4.05,15.46-6.25,18.08,.75,.01,.03-.02,.14-.03,.17-.36,.47-.83,1.13-1.86,1.67-6.96,3.62-22.27,9-33.84,.11Z"/><path class="cls-4" d="M33.81,18.17h-1.89c-1.46-.42-1.31-1.86-1.31-3.16v-3.67c-.06-2.46-.44-3.62-1.27-3.7-1.5-.14-1.64,1.63-2.47,5.29-1.27,5.62-10,6.97-13.01,1.04l-.1-.18c-1.41-2.46-.25-5.74-2.68-5.53-1.66,.14-1.4,3.27-1.52,4.75-.01,.13-.02,.26-.02,.39l-.04,1.62c-.28,1.69,.14,2.96-2.1,2.89,0,0-.92-.38-1.23-.49-1.51-.5-1.91-1.55-1.91-2.41v-5.43c0-2.63-.18-6.02,1.45-7.64C7.71-.05,11.4-.52,13.9,.58l.11,.05c.37,.16,.72,.38,1,.67,4.06,4.1,2.35,10.45,5.21,10.59s1.57-7.8,6.73-11.17h0c2.8-1.32,6.09-.62,8.13,1.9,1.28,1.58,.85,4.69,.85,6.98v6.23c0,1.3-.95,2.35-2.11,2.35Z"/><path class="cls-1" d="M9.41,7.59l.73-.21h-.01c-1.2,.71-1.43,.72-1.6,2.39v6.96c0,.06-.13,.06-.29,.04h0c-.3-.03-.52-.13-.52-.24v-7.14c0-.38,.14-.75,.4-1.12h0c.2-.28,.67-.52,1.28-.7Z"/><path class="cls-1" d="M24.86,3.27c-.1,.3-.63,1.37-1.05,3.24l-1.18,3.97c-.42,1.32-1.26,2.06-2.42,2.83h0c1.68-.14,3.08-1.31,3.49-2.91l.71-2.4c.32-2.05,0-3.7,.46-4.74Z"/><path class="cls-1" d="M33.53,1.86l.26,.37c.86,1.24,1.35,1.86,1.35,3.61v10.43h0c0,.39-.37,.94-.8,1.11V8.07c0-4.01-.12-4.71-.73-5.92l-.07-.28Z"/></g></g></svg>