<?xml version="1.0" encoding="UTF-8"?><svg id="Layer_2" xmlns="http://www.w3.org/2000/svg" xmlns:xlink="http://www.w3.org/1999/xlink" viewBox="0 0 38.14 54.43"><defs><style>.cls-1{fill:#fff;}.cls-2{fill:#085b56;}.cls-3{fill:#d4e7e5;}.cls-4{fill:#00a79d;}.cls-5{fill:url(#Orange__Yellow);}.cls-6{fill:url(#linear-gradient);}</style><linearGradient id="Orange__Yellow" x1="0" y1="38.72" x2="38.14" y2="38.72" gradientTransform="matrix(1, 0, 0, 1, 0, 0)" gradientUnits="userSpaceOnUse"><stop offset="0" stop-color="#fff33b"/><stop offset=".04" stop-color="#fee62d"/><stop offset=".12" stop-color="#fdd51b"/><stop offset=".2" stop-color="#fdca0f"/><stop offset=".28" stop-color="#fdc70c"/><stop offset=".67" stop-color="#f3903f"/><stop offset=".89" stop-color="#ed683c"/><stop offset="1" stop-color="#e93e3a"/></linearGradient><linearGradient id="linear-gradient" x1="19.43" y1="22.97" x2="19.43" y2="34.7" gradientTransform="matrix(1, 0, 0, 1, 0, 0)" gradientUnits="userSpaceOnUse"><stop offset="0" stop-color="#fff33b"/><stop offset=".04" stop-color="#fee62d"/><stop offset=".12" stop-color="#fdd51b"/><stop offset=".2" stop-color="#fdca0f"/><stop offset=".28" stop-color="#fdc70c"/><stop offset=".67" stop-color="#f3903f"/><stop offset=".84" stop-color="#ed683c"/><stop offset=".96" stop-color="#c54c29"/></linearGradient></defs><g id="Layer_1-2"><path class="cls-5" d="M22.75,54.07c-2.8,.51-4.28,.43-7.37,0-3.83-.53-11.61-4.12-13.78-8.05L0,28.44s.06-.04,.07-.15c.56-4.03,3.64-5.54,3.37-5.25-2.63,2.78-.22,4.67-.16,4.74,3.44,4.17,11.17,2.34,16.73-.57s14.96-6.88,18.13,.74c.01,.03,0,0,0,0l-1.6,18.08c-2.15,4.18-9.98,7.36-13.78,8.05Z"/><ellipse class="cls-2" cx="19.13" cy="40.32" rx="2.59" ry="2.63"/><polygon class="cls-2" points="17.47 42.15 20.45 42.15 21.4 47.71 16.64 47.71 17.47 42.15"/><path class="cls-6" d="M2.62,29.88c-1.47-1.13-2.24-2.19-1.71-3.99,.2-.7,.61-1.42,1.04-1.89,.62-.69,1.66-1.15,1.52-1-.71,.77-.81,1.06-1,1.45-.33,.68-.32,1.47-.02,2.03,2.36,4.44,11.67,4.48,17.72,.72,6.49-4.03,15.36-6.21,17.97,.74,.01,.03-.02,.14-.03,.16-.36,.46-.83,1.13-1.85,1.66-6.92,3.59-22.13,8.94-33.63,.11Z"/><path class="cls-4" d="M33.6,18.06h-1.88c-1.45-.41-1.3-1.85-1.3-3.14v-3.64c-.06-2.45-.44-3.6-1.26-3.67-1.49-.14-1.63,1.62-2.45,5.25-1.26,5.58-9.93,6.92-12.93,1.04l-.1-.18c-1.4-2.45-.25-5.7-2.66-5.49-1.65,.14-1.39,3.25-1.51,4.72,0,.13-.02,.26-.02,.39l-.04,11.41c-.28,1.68,.14,2.94-2.08,2.88,0,0-.91-.38-1.22-.48-1.51-.5-1.9-1.54-1.9-2.4V9.53c0-2.61-.18-5.98,1.44-7.6C7.66-.05,11.33-.51,13.81,.57l.11,.05c.36,.16,.71,.38,1,.66,4.04,4.08,2.33,10.39,5.18,10.52,2.83,.14,1.56-7.75,6.69-11.1h0c2.78-1.31,6.05-.61,8.08,1.88,1.27,1.57,.84,4.66,.84,6.93v6.19c0,1.29-.94,2.34-2.1,2.34Z"/><path class="cls-1" d="M9.35,6.84l.73-.43v.02c-1.2,1.45-1.44,1.47-1.61,4.92v14.38c0,.12-.13,.13-.28,.09h0c-.3-.05-.51-.26-.51-.5V10.59c0-.78,.13-1.56,.4-2.31h0c.2-.58,.66-1.08,1.27-1.44Z"/><path class="cls-1" d="M33.54,1.89l.26,.37c.86,1.23,1.34,1.85,1.34,3.59v10.36h0c0,.39-.36,.93-.8,1.1V8.05c0-3.98-.12-4.68-.73-5.89l-.07-.28Z"/><path class="cls-3" d="M24.7,3.25c-.1,.3-.62,1.36-1.05,3.22l-1.17,3.95c-.41,1.31-1.25,2.05-2.41,2.81h0c1.67-.14,3.06-1.3,3.47-2.89l.7-2.38c.32-2.04,0-3.68,.46-4.71Z"/><ellipse class="cls-2" cx="31.45" cy="26.81" rx="3.04" ry=".97"/></g></svg>