<?xml version="1.0" encoding="UTF-8"?><svg id="Layer_2" xmlns="http://www.w3.org/2000/svg" viewBox="0 0 78.69 92.42"><defs><style>.cls-1,.cls-2{fill:#fff;}.cls-3{fill:#085b56;}.cls-4{fill:#9ac1be;}.cls-5{fill:#00a79d;}.cls-2{stroke:#00a79d;stroke-miterlimit:10;stroke-width:6px;}.cls-6{fill:#b6e1db;}</style></defs><g id="Layer_1-2"><g><circle class="cls-2" cx="38.06" cy="38.06" r="35.06"/><path class="cls-5" d="M42.47,61.33c-2.81,.51-4.31,.43-7.41,0-3.85-.53-11.69-4.14-13.87-8.1l-1.61-17.7s.06-.04,.07-.15c.56-4.06,3.67-5.58,3.39-5.28-2.65,2.8-.22,4.7-.17,4.77,3.46,4.2,11.24,2.36,16.83-.57,5.68-2.97,15.06-6.93,18.25,.75,.01,.03,0,0,0,0l-1.61,18.19c-2.16,4.2-10.05,7.4-13.87,8.1Z"/><ellipse class="cls-3" cx="38.82" cy="47.49" rx="2.61" ry="2.65"/><polygon class="cls-3" points="37.16 49.34 40.15 49.34 41.11 54.93 36.32 54.93 37.16 49.34"/><path class="cls-6" d="M22.2,36.99c-1.48-1.14-2.25-2.2-1.73-4.01,.2-.7,.62-1.43,1.05-1.91,.62-.69,1.67-1.16,1.53-1-.71,.78-.81,1.07-1.01,1.46-.33,.69-.32,1.48-.02,2.05,2.38,4.47,11.74,4.51,17.84,.73,6.53-4.05,15.46-6.25,18.08,.75,.01,.03-.02,.14-.03,.17-.36,.47-.83,1.13-1.86,1.67-6.96,3.62-22.27,9-33.84,.11Z"/><path class="cls-4" d="M53.38,35.23h-1.89c-1.46-.42-1.31-1.86-1.31-3.16v-3.67c-.06-2.46-.44-3.62-1.27-3.7-1.5-.14-1.64,1.63-2.47,5.29-1.27,5.62-10,6.97-13.01,1.04l-.1-.18c-1.41-2.46-.25-5.74-2.68-5.53-1.66,.14-1.4,3.27-1.52,4.75-.01,.13-.02,.26-.02,.39l-.04,1.62c-.28,1.69,.14,2.96-2.1,2.89,0,0-.92-.38-1.23-.49-1.51-.5-1.91-1.55-1.91-2.41v-5.43c0-2.63-.18-6.02,1.45-7.64,2-2,5.69-2.46,8.19-1.37l.11,.05c.37,.16,.72,.38,1,.67,4.06,4.1,2.35,10.45,5.21,10.59s1.57-7.8,6.73-11.17h0c2.8-1.32,6.09-.62,8.13,1.9,1.28,1.58,.85,4.69,.85,6.98v6.23c0,1.3-.95,2.35-2.11,2.35Z"/><path class="cls-1" d="M28.98,24.65l.73-.21h-.01c-1.2,.71-1.43,.72-1.6,2.39v6.96c0,.06-.13,.06-.29,.04h0c-.3-.03-.52-.13-.52-.24v-7.14c0-.38,.14-.75,.4-1.12h0c.2-.28,.67-.52,1.28-.7Z"/><path class="cls-1" d="M44.43,20.33c-.1,.3-.63,1.37-1.05,3.24l-1.18,3.97c-.42,1.32-1.26,2.06-2.42,2.83h0c1.68-.14,3.08-1.31,3.49-2.91l.71-2.4c.32-2.05,0-3.7,.46-4.74Z"/><path class="cls-1" d="M53.1,18.92l.26,.37c.86,1.24,1.35,1.86,1.35,3.61v10.43h0c0,.39-.37,.94-.8,1.11v-9.32c0-4.01-.12-4.71-.73-5.92l-.07-.28Z"/><rect class="cls-2" x="3.71" y="67.7" width="71.98" height="21.72" rx="8.96" ry="8.96"/><g><path class="cls-5" d="M11.61,78.91v-4.13c0-.35,.08-.62,.24-.79s.37-.26,.62-.26,.48,.09,.64,.26,.24,.44,.24,.79v4.22c0,.48,.05,.88,.16,1.2s.3,.57,.57,.75,.66,.27,1.15,.27c.68,0,1.16-.18,1.44-.54s.42-.91,.42-1.64v-4.26c0-.36,.08-.62,.23-.79s.37-.26,.63-.26,.47,.09,.64,.26,.24,.44,.24,.79v4.13c0,.67-.07,1.23-.2,1.68s-.38,.84-.74,1.18c-.31,.29-.68,.5-1.09,.63s-.9,.2-1.45,.2c-.66,0-1.23-.07-1.71-.21s-.87-.36-1.17-.66-.52-.68-.66-1.15-.21-1.02-.21-1.67Z"/><path class="cls-5" d="M22.98,74.76l3.35,5.06v-5.11c0-.33,.07-.58,.21-.75s.33-.25,.58-.25,.45,.08,.59,.25,.22,.42,.22,.75v6.76c0,.75-.31,1.13-.94,1.13-.16,0-.3-.02-.42-.07s-.24-.12-.35-.21-.21-.21-.3-.34-.19-.26-.28-.4l-3.26-5v5.03c0,.33-.08,.58-.23,.74s-.35,.25-.59,.25-.44-.08-.59-.25-.22-.42-.22-.74v-6.63c0-.28,.03-.5,.09-.66,.07-.18,.2-.32,.37-.43s.36-.17,.56-.17c.16,0,.29,.03,.4,.08s.21,.12,.29,.21,.17,.2,.26,.33,.18,.28,.27,.43Z"/><path class="cls-5" d="M31.54,74.78v6.25h3.53c.28,0,.5,.07,.65,.21s.23,.31,.23,.52-.07,.38-.22,.51-.37,.2-.65,.2h-4.2c-.38,0-.65-.08-.82-.25s-.25-.44-.25-.81v-6.62c0-.35,.08-.62,.24-.79s.37-.26,.62-.26,.47,.09,.64,.26,.24,.44,.24,.79Z"/><path class="cls-5" d="M40.26,73.72c.89,0,1.66,.18,2.29,.54s1.12,.88,1.45,1.54,.49,1.45,.49,2.35c0,.66-.09,1.27-.27,1.81s-.45,1.01-.81,1.41-.8,.7-1.32,.91-1.12,.32-1.8,.32-1.27-.11-1.8-.33-.97-.52-1.33-.92-.62-.87-.81-1.42-.27-1.15-.27-1.8,.09-1.27,.28-1.82,.46-1.02,.82-1.41,.8-.68,1.31-.89,1.1-.31,1.76-.31Zm2.47,4.42c0-.63-.1-1.17-.3-1.63s-.49-.81-.87-1.05-.81-.35-1.3-.35c-.35,0-.67,.07-.96,.2s-.55,.32-.76,.57-.38,.57-.5,.96-.18,.83-.18,1.31,.06,.93,.18,1.32,.3,.72,.52,.98,.48,.45,.77,.58,.61,.19,.96,.19c.45,0,.85-.11,1.23-.33s.67-.57,.89-1.03,.33-1.04,.33-1.72Z"/><path class="cls-5" d="M53.3,79.74c0,.27-.07,.57-.2,.89s-.35,.63-.64,.94-.66,.56-1.11,.75-.97,.29-1.57,.29c-.45,0-.87-.04-1.24-.13s-.71-.22-1.01-.4-.58-.42-.83-.72c-.23-.27-.42-.57-.58-.91s-.28-.69-.36-1.07-.12-.78-.12-1.21c0-.69,.1-1.31,.3-1.86s.49-1.01,.86-1.4,.81-.68,1.32-.89,1.04-.3,1.61-.3c.7,0,1.31,.14,1.86,.42s.96,.62,1.25,1.03,.43,.79,.43,1.16c0,.2-.07,.38-.21,.53s-.31,.23-.51,.23c-.22,0-.39-.05-.5-.16s-.24-.29-.37-.54c-.23-.43-.49-.74-.8-.96s-.68-.32-1.13-.32c-.71,0-1.28,.27-1.71,.81s-.64,1.31-.64,2.31c0,.67,.09,1.22,.28,1.67s.45,.77,.8,.99,.75,.33,1.21,.33c.5,0,.92-.12,1.27-.37s.61-.61,.78-1.09c.07-.23,.17-.41,.28-.55s.29-.21,.53-.21c.21,0,.38,.07,.53,.22s.22,.32,.22,.54Z"/><path class="cls-5" d="M56.62,74.78v3.01l3.42-3.56c.16-.17,.3-.3,.42-.38s.27-.12,.46-.12c.25,0,.45,.07,.61,.22s.23,.33,.23,.54c0,.25-.13,.51-.39,.76l-2.12,2,2.44,3.49c.17,.24,.3,.45,.39,.64s.13,.36,.13,.53c0,.19-.08,.36-.23,.5s-.35,.21-.61,.21c-.24,0-.44-.05-.59-.16s-.28-.24-.39-.41-.2-.33-.28-.47l-2.06-3.16-1.42,1.37v1.78c0,.36-.08,.63-.25,.8s-.38,.26-.63,.26c-.15,0-.29-.04-.43-.12s-.24-.18-.32-.32c-.05-.11-.09-.24-.1-.38s-.02-.35-.02-.63v-6.39c0-.35,.08-.62,.23-.79s.36-.26,.63-.26,.47,.09,.64,.26,.24,.44,.24,.79Z"/><path class="cls-5" d="M63.34,76.17c0-.37,.12-.75,.36-1.13s.59-.7,1.04-.95,.99-.38,1.6-.38c.57,0,1.07,.1,1.5,.31s.77,.49,1,.85,.35,.75,.35,1.17c0,.33-.07,.62-.2,.87s-.29,.47-.48,.65-.52,.49-1,.92c-.13,.12-.24,.23-.32,.32s-.14,.18-.18,.25-.07,.15-.09,.23-.05,.21-.1,.4c-.07,.41-.31,.61-.7,.61-.2,0-.37-.07-.51-.2s-.21-.33-.21-.59c0-.33,.05-.61,.15-.85s.24-.45,.4-.63,.39-.4,.68-.65c.25-.22,.43-.38,.54-.5s.21-.24,.28-.37,.11-.29,.11-.45c0-.31-.12-.58-.35-.79s-.53-.32-.9-.32c-.43,0-.75,.11-.95,.33s-.38,.54-.52,.96c-.13,.44-.38,.66-.76,.66-.22,0-.4-.08-.55-.23s-.23-.32-.23-.5Zm2.86,6.42c-.24,0-.45-.08-.62-.23s-.27-.37-.27-.65c0-.25,.09-.45,.26-.62s.38-.25,.63-.25,.45,.08,.62,.25,.25,.38,.25,.62c0,.27-.09,.49-.26,.64s-.38,.23-.61,.23Z"/></g></g></g></svg>